<?xml version="1.0" encoding="UTF-8"?>
<svg width="1000" height="700" xmlns="http://www.w3.org/2000/svg">
<style>
text { font-family: Arial, sans-serif; }
.title { font-size: 16px; font-weight: bold; }
.label { font-size: 12px; }
.tick { font-size: 10px; }
.curve { stroke: #d62728; stroke-width: 2.5; fill: none; }
.point { stroke: #d62728; stroke-width: 1; fill: #d62728; opacity: 0.7; }
</style>
<rect width="1000" height="700" fill="white"/>
<line x1="60" y1="640" x2="940" y2="640" stroke="black" stroke-width="2"/>
<line x1="60" y1="60" x2="60" y2="640" stroke="black" stroke-width="2"/>
<line x1="60.0" y1="640" x2="60.0" y2="645" stroke="black"/>
<text x="60.0" y="660" text-anchor="middle" class="tick">0.01</text>
<line x1="353.3333333333333" y1="640" x2="353.3333333333333" y2="645" stroke="black"/>
<text x="353.3333333333333" y="660" text-anchor="middle" class="tick">0.10</text>
<line x1="646.6666666666666" y1="640" x2="646.6666666666666" y2="645" stroke="black"/>
<text x="646.6666666666666" y="660" text-anchor="middle" class="tick">1.00</text>
<line x1="940.0" y1="640" x2="940.0" y2="645" stroke="black"/>
<text x="940.0" y="660" text-anchor="middle" class="tick">10.00</text>
<line x1="55" y1="644.626291517186" x2="60" y2="644.626291517186" stroke="black"/>
<text x="50" y="648.626291517186" text-anchor="end" class="tick">1e-05</text>
<line x1="55" y1="562.136360179222" x2="60" y2="562.136360179222" stroke="black"/>
<text x="50" y="566.136360179222" text-anchor="end" class="tick">1e-04</text>
<line x1="55" y1="479.64642884125794" x2="60" y2="479.64642884125794" stroke="black"/>
<text x="50" y="483.64642884125794" text-anchor="end" class="tick">1e-03</text>
<line x1="55" y1="397.1564975032939" x2="60" y2="397.1564975032939" stroke="black"/>
<text x="50" y="401.1564975032939" text-anchor="end" class="tick">1e-02</text>
<line x1="55" y1="314.6665661653298" x2="60" y2="314.6665661653298" stroke="black"/>
<text x="50" y="318.6665661653298" text-anchor="end" class="tick">1e-01</text>
<line x1="55" y1="232.17663482736577" x2="60" y2="232.17663482736577" stroke="black"/>
<text x="50" y="236.17663482736577" text-anchor="end" class="tick">1e+00</text>
<line x1="55" y1="149.68670348940174" x2="60" y2="149.68670348940174" stroke="black"/>
<text x="50" y="153.68670348940174" text-anchor="end" class="tick">1e+01</text>
<line x1="55" y1="67.1967721514377" x2="60" y2="67.1967721514377" stroke="black"/>
<text x="50" y="71.1967721514377" text-anchor="end" class="tick">1e+02</text>
<line x1="55" y1="-15.293159186526395" x2="60" y2="-15.293159186526395" stroke="black"/>
<text x="50" y="-11.293159186526395" text-anchor="end" class="tick">1e+03</text>
<path d="M60.0,557.5100686620359 L111.65343598966646,447.7131543910398 L148.30213206143452,372.365991395658 L176.7290692104644,323.90488141490226 L199.95556805110095,301.9118286519126 L236.604264122869,265.8781568917397 L265.0312012718988,242.73073667361996 L288.2577001125355,227.2872167474552 L307.8954250708487,222.34845435435386 L324.90639618430345,215.22408924636608 L339.9111361022019,200.24181779619857 L353.3333333333333,207.13191521984294 L376.5598321739699,193.28540215127072 L404.98676932299986,189.39797506116219 L441.63546539476783,174.93318047195817 L470.06240254379765,176.04991946538775 L493.28890138443427,157.99826264523313 L529.9375974562023,171.14427467907694 L558.3645346052322,160.20380802453155 L581.5910334458688,172.34009935737862 L601.228758404182,159.98118084667237 L618.2397295176368,153.1281957457963 L633.2444694355353,154.22162372137723 L646.6666666666666,142.8606160065641 L675.0936038156965,163.35540577809945 L698.3201026563332,146.58191331841516 L717.9578276146464,144.73729579899486 L734.9687987281012,155.14847249999337 L763.395735877131,144.03050153795243 L786.6222347177677,156.6528874895372 L823.2709307895357,160.20791641663095 L851.6978679385655,145.28120179262845 L903.351303928232,142.84445273135464 L940.0,142.48993133796404" class="curve"/>
<circle cx="60.0" cy="557.5100686620359" r="3" class="point"/>
<circle cx="111.65343598966646" cy="447.7131543910398" r="3" class="point"/>
<circle cx="148.30213206143452" cy="372.365991395658" r="3" class="point"/>
<circle cx="176.7290692104644" cy="323.90488141490226" r="3" class="point"/>
<circle cx="199.95556805110095" cy="301.9118286519126" r="3" class="point"/>
<circle cx="236.604264122869" cy="265.8781568917397" r="3" class="point"/>
<circle cx="265.0312012718988" cy="242.73073667361996" r="3" class="point"/>
<circle cx="288.2577001125355" cy="227.2872167474552" r="3" class="point"/>
<circle cx="307.8954250708487" cy="222.34845435435386" r="3" class="point"/>
<circle cx="324.90639618430345" cy="215.22408924636608" r="3" class="point"/>
<circle cx="339.9111361022019" cy="200.24181779619857" r="3" class="point"/>
<circle cx="353.3333333333333" cy="207.13191521984294" r="3" class="point"/>
<circle cx="376.5598321739699" cy="193.28540215127072" r="3" class="point"/>
<circle cx="404.98676932299986" cy="189.39797506116219" r="3" class="point"/>
<circle cx="441.63546539476783" cy="174.93318047195817" r="3" class="point"/>
<circle cx="470.06240254379765" cy="176.04991946538775" r="3" class="point"/>
<circle cx="493.28890138443427" cy="157.99826264523313" r="3" class="point"/>
<circle cx="529.9375974562023" cy="171.14427467907694" r="3" class="point"/>
<circle cx="558.3645346052322" cy="160.20380802453155" r="3" class="point"/>
<circle cx="581.5910334458688" cy="172.34009935737862" r="3" class="point"/>
<circle cx="601.228758404182" cy="159.98118084667237" r="3" class="point"/>
<circle cx="618.2397295176368" cy="153.1281957457963" r="3" class="point"/>
<circle cx="633.2444694355353" cy="154.22162372137723" r="3" class="point"/>
<circle cx="646.6666666666666" cy="142.8606160065641" r="3" class="point"/>
<circle cx="675.0936038156965" cy="163.35540577809945" r="3" class="point"/>
<circle cx="698.3201026563332" cy="146.58191331841516" r="3" class="point"/>
<circle cx="717.9578276146464" cy="144.73729579899486" r="3" class="point"/>
<circle cx="734.9687987281012" cy="155.14847249999337" r="3" class="point"/>
<circle cx="763.395735877131" cy="144.03050153795243" r="3" class="point"/>
<circle cx="786.6222347177677" cy="156.6528874895372" r="3" class="point"/>
<circle cx="823.2709307895357" cy="160.20791641663095" r="3" class="point"/>
<circle cx="851.6978679385655" cy="145.28120179262845" r="3" class="point"/>
<circle cx="903.351303928232" cy="142.84445273135464" r="3" class="point"/>
<circle cx="940.0" cy="142.48993133796404" r="3" class="point"/>
<text x="500" y="25" text-anchor="middle" class="title">一致危险谱 (50年超越概率20%)</text>
<text x="500" y="690" text-anchor="middle" class="label">周期 (s)</text>
<text x="20" y="350" text-anchor="middle" class="label" transform="rotate(-90 20 350)">谱加速度 (cm/s²)</text>
</svg>