<?xml version="1.0" encoding="UTF-8"?>
<svg width="1000" height="700" xmlns="http://www.w3.org/2000/svg">
<style>
text { font-family: Arial, sans-serif; }
.title { font-size: 16px; font-weight: bold; }
.label { font-size: 12px; }
.tick { font-size: 10px; }
.grid { stroke: #e0e0e0; stroke-width: 0.5; }
.curve { stroke: #0066cc; stroke-width: 2; fill: none; }
.point { stroke: #003366; stroke-width: 1; fill: #0066cc; }
</style>
<rect width="1000" height="700" fill="white"/>
<line x1="60" y1="640" x2="940" y2="640" stroke="black" stroke-width="2"/>
<line x1="60" y1="60" x2="60" y2="640" stroke="black" stroke-width="2"/>
<line x1="60.0" y1="640" x2="60.0" y2="645" stroke="black"/>
<text x="60.0" y="660" text-anchor="middle" class="tick">0.1</text>
<line x1="500.0" y1="640" x2="500.0" y2="645" stroke="black"/>
<text x="500.0" y="660" text-anchor="middle" class="tick">1.0</text>
<line x1="940.0" y1="640" x2="940.0" y2="645" stroke="black"/>
<text x="940.0" y="660" text-anchor="middle" class="tick">10.0</text>
<line x1="55" y1="544.9615403153821" x2="60" y2="544.9615403153821" stroke="black"/>
<text x="50" y="548.9615403153821" text-anchor="end" class="tick">10^14</text>
<line x1="55" y1="377.3172884069982" x2="60" y2="377.3172884069982" stroke="black"/>
<text x="50" y="381.3172884069982" text-anchor="end" class="tick">10^15</text>
<line x1="55" y1="209.6730364986144" x2="60" y2="209.6730364986144" stroke="black"/>
<text x="50" y="213.6730364986144" text-anchor="end" class="tick">10^16</text>
<path d="M60.0,640.0 L192.45319809215175,539.9830079368484 L269.93335207665143,481.8565545965723 L324.90639618430345,440.88094489678576 L367.54680190784825,409.3030530351332 L402.3865501688032,383.66941521636056 L431.843137606273,362.1378577644932 L457.3595942764552,343.6087293189417 L479.8667041533029,327.37278983296665 L500.0,312.9457464920319 L518.2127814696191,299.98217405877324 L534.8397482609549,288.2270258114101 L550.1350750150082,277.48661982039835 L564.2963356984246,267.6103919233671 L577.4801539844998,258.47897928774813 L589.8127923686069,249.99619373779115 L601.3975254064405,242.083317526408 L612.3199022454546,234.67517835070726 L622.6515844192447,227.71715402250197 L632.4531980921518,221.16305698714672 L641.7764896829245,214.973444371107 L650.6659795617708,209.11442564804383 L659.1602478477408,203.55650726655227 L667.2929463531066,198.27418554031368 L675.0936038156965,193.24483957492941 L682.5882731071599,188.44869584398634 L689.8000562299544,183.86805897896153 L696.7495337905765,179.48736692815072 L703.4551190755407,175.29249640837918 L709.9333520766514,171.27089305866332 L716.19914528708,167.41114197844814 L722.2659904607586,163.7029873733431 L728.1461335462706,160.13714214348687 L733.8507234985923,156.7050622908688 L739.3899395141214,153.39896927120742 L744.7731003376064,150.2118237152253 L750.0087585894778,147.13708040905584 L755.1047825113965,144.16873095067655 L760.0684270916596,141.30124513265451 L764.9063961843035,138.52954755436934 L769.6248969566836,135.84888923281625 L774.2296877750762,133.2548698678259 L778.7261204550181,130.7434033115186 L783.1191776539225,128.31073483791857 L787.4135060611512,125.95329148923724 L791.6134459398926,123.66778169406348 L795.7230574917157,121.45110199093597 L799.7461444452583,119.30034283266161 L803.6862752125461,117.21281267450104 L807.5468019078482,115.18593776300702 L811.330877483092,113.21731261210539 L815.0414711993117,111.3046852838711 L818.6813826243472,109.44592588405521 L822.2532543221062,107.63899914907654 L825.7595833774673,105.8820279697926 L829.2027318827281,104.17321086337074 L832.5849364958963,102.51081716354793 L835.9083171676924,100.89326420089299 L839.1748851225435,99.31899235559649 L842.3865501688032,97.78655915605407 L845.5451274047375,96.29458354060989 L848.6523433792318,94.84174173398355 L851.709841759576,93.42679292229661 L854.7191885529103,92.04852952103897 L857.6818769228565,90.70581806478367 L860.5993316384223,89.39757975220914 L863.4729131883637,88.12278667884743 L866.3039215907439,86.88041793849743 L869.0935999243923,85.66955259046517 L871.8431376062731,84.48927088031462 L874.5536734363931,83.3387060746503 L877.2262984297581,82.21702818833717 L879.8620584530006,81.12345407398357 L882.4619566816295,80.0571952267345 L885.026955892348,79.01754313910442 L887.5579806035482,78.0037684634791 L890.055919075892,77.01520501508924 L892.5216251838114,76.0512108381223 L894.9559201677943,75.11115527463369 L897.3595942764551,74.19442963969811 L899.7334083066058,73.30045707513068 L902.0780950488354,72.42867958156432 L904.3943606454725,71.57855689609607 L906.6828858672279,70.74957623889975 L908.9443273142889,69.94122935881637 L911.1793185471698,69.15304391707605 L913.3884711521921,68.38455012309839 L915.5723757460743,67.63529086074118 L917.7316029237617,66.90484142340392 L919.8667041533029,66.19276721310462 L921.9782126212812,65.49867434071598 L924.0666440320442,64.82216775174231 L926.1324973637315,64.16287088562956 L928.1762555838675,63.52040514765906 L930.198386327093,62.89441893754952 L932.1993425374101,62.28457673393916 L934.1795630771477,61.690529673891206 L936.1394733046977,61.11196324521279 L938.079485622922,60.54854883041867 L940.0,60.0" class="curve"/>
<circle cx="60.0" cy="640.0" r="3" class="point"/>
<circle cx="192.45319809215175" cy="539.9830079368484" r="3" class="point"/>
<circle cx="269.93335207665143" cy="481.8565545965723" r="3" class="point"/>
<circle cx="324.90639618430345" cy="440.88094489678576" r="3" class="point"/>
<circle cx="367.54680190784825" cy="409.3030530351332" r="3" class="point"/>
<circle cx="402.3865501688032" cy="383.66941521636056" r="3" class="point"/>
<circle cx="431.843137606273" cy="362.1378577644932" r="3" class="point"/>
<circle cx="457.3595942764552" cy="343.6087293189417" r="3" class="point"/>
<circle cx="479.8667041533029" cy="327.37278983296665" r="3" class="point"/>
<circle cx="500.0" cy="312.9457464920319" r="3" class="point"/>
<circle cx="518.2127814696191" cy="299.98217405877324" r="3" class="point"/>
<circle cx="534.8397482609549" cy="288.2270258114101" r="3" class="point"/>
<circle cx="550.1350750150082" cy="277.48661982039835" r="3" class="point"/>
<circle cx="564.2963356984246" cy="267.6103919233671" r="3" class="point"/>
<circle cx="577.4801539844998" cy="258.47897928774813" r="3" class="point"/>
<circle cx="589.8127923686069" cy="249.99619373779115" r="3" class="point"/>
<circle cx="601.3975254064405" cy="242.083317526408" r="3" class="point"/>
<circle cx="612.3199022454546" cy="234.67517835070726" r="3" class="point"/>
<circle cx="622.6515844192447" cy="227.71715402250197" r="3" class="point"/>
<circle cx="632.4531980921518" cy="221.16305698714672" r="3" class="point"/>
<circle cx="641.7764896829245" cy="214.973444371107" r="3" class="point"/>
<circle cx="650.6659795617708" cy="209.11442564804383" r="3" class="point"/>
<circle cx="659.1602478477408" cy="203.55650726655227" r="3" class="point"/>
<circle cx="667.2929463531066" cy="198.27418554031368" r="3" class="point"/>
<circle cx="675.0936038156965" cy="193.24483957492941" r="3" class="point"/>
<circle cx="682.5882731071599" cy="188.44869584398634" r="3" class="point"/>
<circle cx="689.8000562299544" cy="183.86805897896153" r="3" class="point"/>
<circle cx="696.7495337905765" cy="179.48736692815072" r="3" class="point"/>
<circle cx="703.4551190755407" cy="175.29249640837918" r="3" class="point"/>
<circle cx="709.9333520766514" cy="171.27089305866332" r="3" class="point"/>
<circle cx="716.19914528708" cy="167.41114197844814" r="3" class="point"/>
<circle cx="722.2659904607586" cy="163.7029873733431" r="3" class="point"/>
<circle cx="728.1461335462706" cy="160.13714214348687" r="3" class="point"/>
<circle cx="733.8507234985923" cy="156.7050622908688" r="3" class="point"/>
<circle cx="739.3899395141214" cy="153.39896927120742" r="3" class="point"/>
<circle cx="744.7731003376064" cy="150.2118237152253" r="3" class="point"/>
<circle cx="750.0087585894778" cy="147.13708040905584" r="3" class="point"/>
<circle cx="755.1047825113965" cy="144.16873095067655" r="3" class="point"/>
<circle cx="760.0684270916596" cy="141.30124513265451" r="3" class="point"/>
<circle cx="764.9063961843035" cy="138.52954755436934" r="3" class="point"/>
<circle cx="769.6248969566836" cy="135.84888923281625" r="3" class="point"/>
<circle cx="774.2296877750762" cy="133.2548698678259" r="3" class="point"/>
<circle cx="778.7261204550181" cy="130.7434033115186" r="3" class="point"/>
<circle cx="783.1191776539225" cy="128.31073483791857" r="3" class="point"/>
<circle cx="787.4135060611512" cy="125.95329148923724" r="3" class="point"/>
<circle cx="791.6134459398926" cy="123.66778169406348" r="3" class="point"/>
<circle cx="795.7230574917157" cy="121.45110199093597" r="3" class="point"/>
<circle cx="799.7461444452583" cy="119.30034283266161" r="3" class="point"/>
<circle cx="803.6862752125461" cy="117.21281267450104" r="3" class="point"/>
<circle cx="807.5468019078482" cy="115.18593776300702" r="3" class="point"/>
<circle cx="811.330877483092" cy="113.21731261210539" r="3" class="point"/>
<circle cx="815.0414711993117" cy="111.3046852838711" r="3" class="point"/>
<circle cx="818.6813826243472" cy="109.44592588405521" r="3" class="point"/>
<circle cx="822.2532543221062" cy="107.63899914907654" r="3" class="point"/>
<circle cx="825.7595833774673" cy="105.8820279697926" r="3" class="point"/>
<circle cx="829.2027318827281" cy="104.17321086337074" r="3" class="point"/>
<circle cx="832.5849364958963" cy="102.51081716354793" r="3" class="point"/>
<circle cx="835.9083171676924" cy="100.89326420089299" r="3" class="point"/>
<circle cx="839.1748851225435" cy="99.31899235559649" r="3" class="point"/>
<circle cx="842.3865501688032" cy="97.78655915605407" r="3" class="point"/>
<circle cx="845.5451274047375" cy="96.29458354060989" r="3" class="point"/>
<circle cx="848.6523433792318" cy="94.84174173398355" r="3" class="point"/>
<circle cx="851.709841759576" cy="93.42679292229661" r="3" class="point"/>
<circle cx="854.7191885529103" cy="92.04852952103897" r="3" class="point"/>
<circle cx="857.6818769228565" cy="90.70581806478367" r="3" class="point"/>
<circle cx="860.5993316384223" cy="89.39757975220914" r="3" class="point"/>
<circle cx="863.4729131883637" cy="88.12278667884743" r="3" class="point"/>
<circle cx="866.3039215907439" cy="86.88041793849743" r="3" class="point"/>
<circle cx="869.0935999243923" cy="85.66955259046517" r="3" class="point"/>
<circle cx="871.8431376062731" cy="84.48927088031462" r="3" class="point"/>
<circle cx="874.5536734363931" cy="83.3387060746503" r="3" class="point"/>
<circle cx="877.2262984297581" cy="82.21702818833717" r="3" class="point"/>
<circle cx="879.8620584530006" cy="81.12345407398357" r="3" class="point"/>
<circle cx="882.4619566816295" cy="80.0571952267345" r="3" class="point"/>
<circle cx="885.026955892348" cy="79.01754313910442" r="3" class="point"/>
<circle cx="887.5579806035482" cy="78.0037684634791" r="3" class="point"/>
<circle cx="890.055919075892" cy="77.01520501508924" r="3" class="point"/>
<circle cx="892.5216251838114" cy="76.0512108381223" r="3" class="point"/>
<circle cx="894.9559201677943" cy="75.11115527463369" r="3" class="point"/>
<circle cx="897.3595942764551" cy="74.19442963969811" r="3" class="point"/>
<circle cx="899.7334083066058" cy="73.30045707513068" r="3" class="point"/>
<circle cx="902.0780950488354" cy="72.42867958156432" r="3" class="point"/>
<circle cx="904.3943606454725" cy="71.57855689609607" r="3" class="point"/>
<circle cx="906.6828858672279" cy="70.74957623889975" r="3" class="point"/>
<circle cx="908.9443273142889" cy="69.94122935881637" r="3" class="point"/>
<circle cx="911.1793185471698" cy="69.15304391707605" r="3" class="point"/>
<circle cx="913.3884711521921" cy="68.38455012309839" r="3" class="point"/>
<circle cx="915.5723757460743" cy="67.63529086074118" r="3" class="point"/>
<circle cx="917.7316029237617" cy="66.90484142340392" r="3" class="point"/>
<circle cx="919.8667041533029" cy="66.19276721310462" r="3" class="point"/>
<circle cx="921.9782126212812" cy="65.49867434071598" r="3" class="point"/>
<circle cx="924.0666440320442" cy="64.82216775174231" r="3" class="point"/>
<circle cx="926.1324973637315" cy="64.16287088562956" r="3" class="point"/>
<circle cx="928.1762555838675" cy="63.52040514765906" r="3" class="point"/>
<circle cx="930.198386327093" cy="62.89441893754952" r="3" class="point"/>
<circle cx="932.1993425374101" cy="62.28457673393916" r="3" class="point"/>
<circle cx="934.1795630771477" cy="61.690529673891206" r="3" class="point"/>
<circle cx="936.1394733046977" cy="61.11196324521279" r="3" class="point"/>
<circle cx="938.079485622922" cy="60.54854883041867" r="3" class="point"/>
<circle cx="940.0" cy="60.0" r="3" class="point"/>
<text x="500" y="25" text-anchor="middle" class="title">加速度谱 - 事件 2</text>
<text x="500" y="45" text-anchor="middle" class="label">M4.24 | 深度 11.8 km | 距离 36.7 km</text>
<text x="500" y="690" text-anchor="middle" class="label">频率 (Hz)</text>
<text x="20" y="350" text-anchor="middle" class="label" transform="rotate(-90 20 350)">加速度谱 (cm/s2)</text>
<rect x="780" y="65" width="210" height="100" fill="wheat" opacity="0.8" rx="5"/>
<text x="790" y="70" class="label">震级: M4.24</text>
<text x="790" y="92" class="label">发生时间: 99.6 年</text>
<text x="790" y="114" class="label">深度: 11.8 km</text>
<text x="790" y="136" class="label">距离: 36.7 km</text>
</svg>