<?xml version="1.0" encoding="UTF-8"?>
<svg width="1000" height="700" xmlns="http://www.w3.org/2000/svg">
<style>
text { font-family: Arial, sans-serif; }
.title { font-size: 16px; font-weight: bold; }
.label { font-size: 12px; }
.tick { font-size: 10px; }
.grid { stroke: #e0e0e0; stroke-width: 0.5; }
.curve { stroke: #0066cc; stroke-width: 2; fill: none; }
.point { stroke: #003366; stroke-width: 1; fill: #0066cc; }
</style>
<rect width="1000" height="700" fill="white"/>
<line x1="60" y1="640" x2="940" y2="640" stroke="black" stroke-width="2"/>
<line x1="60" y1="60" x2="60" y2="640" stroke="black" stroke-width="2"/>
<line x1="60.0" y1="640" x2="60.0" y2="645" stroke="black"/>
<text x="60.0" y="660" text-anchor="middle" class="tick">0.1</text>
<line x1="500.0" y1="640" x2="500.0" y2="645" stroke="black"/>
<text x="500.0" y="660" text-anchor="middle" class="tick">1.0</text>
<line x1="940.0" y1="640" x2="940.0" y2="645" stroke="black"/>
<text x="940.0" y="660" text-anchor="middle" class="tick">10.0</text>
<line x1="55" y1="484.0475362745145" x2="60" y2="484.0475362745145" stroke="black"/>
<text x="50" y="488.0475362745145" text-anchor="end" class="tick">10^14</text>
<line x1="55" y1="316.4032757921508" x2="60" y2="316.4032757921508" stroke="black"/>
<text x="50" y="320.4032757921508" text-anchor="end" class="tick">10^15</text>
<line x1="55" y1="148.759015309787" x2="60" y2="148.759015309787" stroke="black"/>
<text x="50" y="152.759015309787" text-anchor="end" class="tick">10^16</text>
<path d="M60.0,640.0 L192.45319809215175,539.9830428204511 L269.93335207665143,481.8565820962708 L324.90639618430345,440.88098671629103 L367.54680190784825,409.3030688190955 L402.3865501688032,383.66942998591315 L431.843137606273,362.13786654959523 L457.3595942764552,343.60875024426855 L479.8667041533029,327.3728148531788 L500.0,312.94579149539425 L518.2127814696191,299.9822247197194 L534.8397482609549,288.22704932872057 L550.1350750150082,277.4866124843223 L564.2963356984246,267.610394050301 L577.4801539844998,258.47899957006877 L589.8127923686069,249.99621001735198 L601.3975254064405,242.08333544356412 L612.3199022454546,234.67519094107496 L622.6515844192447,227.71716543643822 L632.4531980921518,221.16306488945543 L641.7764896829245,214.9734605555936 L650.6659795617708,209.11440711971812 L659.1602478477408,203.5565281635549 L667.2929463531066,198.2741829556938 L675.0936038156965,193.24484158702603 L682.5882731071599,188.44868578087858 L689.8000562299544,183.86808035412872 L696.7495337905765,179.48737255537975 L703.4551190755407,175.29249763621692 L709.9333520766514,171.27087797913225 L716.19914528708,167.411142810049 L722.2659904607586,163.70301212522276 L728.1461335462706,160.13715073779355 L733.8507234985923,156.70506194607123 L739.3899395141214,153.3989880680939 L744.7731003376064,150.21183273129492 L750.0087585894778,147.13709322521976 L755.1047825113965,144.16874675155339 L760.0684270916596,141.3012486985137 L764.9063961843035,138.52957677601296 L769.6248969566836,135.84888918910616 L774.2296877750762,133.2548744531482 L778.7261204550181,130.74340192849309 L783.1191776539225,128.31073320846042 L787.4135060611512,125.95331840292738 L791.6134459398926,123.66778298997565 L795.7230574917157,121.45111559769146 L799.7461444452583,119.30033581370503 L803.6862752125461,117.21283086205767 L807.5468019078482,115.185947096252 L811.330877483092,113.21731640070914 L815.0414711993117,111.30469564899306 L818.6813826243472,109.44591476901098 L822.2532543221062,107.63899743859224 L825.7595833774673,105.88202154820544 L829.2027318827281,104.17319609105914 L832.5849364958963,102.51081147508546 L835.9083171676924,100.89327156676245 L839.1748851225435,99.3190105667394 L842.3865501688032,97.78656468258691 L845.5451274047375,96.2945993613863 L848.6523433792318,94.84175956621652 L851.709841759576,93.42680969577373 L854.7191885529103,92.04852357527568 L857.6818769228565,90.70581610704244 L860.5993316384223,89.3976029154984 L863.4729131883637,88.12276967135335 L866.3039215907439,86.88042444341136 L869.0935999243923,85.66954327320582 L871.8431376062731,84.4892827170911 L874.5536734363931,83.33869931058314 L877.2262984297581,82.21702047142912 L879.8620584530006,81.12345948438372 L882.4619566816295,80.05718858588068 L885.026955892348,79.01753769101924 L887.5579806035482,78.00376319454278 L890.055919075892,77.01521624677753 L892.5216251838114,76.05120246954903 L894.9559201677943,75.11114385488042 L897.3595942764551,74.1944407335044 L899.7334083066058,73.30044735930073 L902.0780950488354,72.42867879672713 L904.3943606454725,71.5785492259065 L906.6828858672279,70.74957721201827 L908.9443273142889,69.94123182953183 L911.1793185471698,69.1530572812685 L913.3884711521921,68.38454810969642 L915.5723757460743,67.635295029232 L917.7316029237617,66.90483802049789 L919.8667041533029,66.19276243052786 L921.9782126212812,65.49867344547795 L924.0666440320442,64.82217205294717 L926.1324973637315,64.16287788195382 L928.1762555838675,63.52040564389006 L930.198386327093,62.89443234795783 L932.1993425374101,62.28458351970005 L934.1795630771477,61.69052325981613 L936.1394733046977,61.11195251247716 L938.079485622922,60.54854244906562 L940.0,60.0" class="curve"/>
<circle cx="60.0" cy="640.0" r="3" class="point"/>
<circle cx="192.45319809215175" cy="539.9830428204511" r="3" class="point"/>
<circle cx="269.93335207665143" cy="481.8565820962708" r="3" class="point"/>
<circle cx="324.90639618430345" cy="440.88098671629103" r="3" class="point"/>
<circle cx="367.54680190784825" cy="409.3030688190955" r="3" class="point"/>
<circle cx="402.3865501688032" cy="383.66942998591315" r="3" class="point"/>
<circle cx="431.843137606273" cy="362.13786654959523" r="3" class="point"/>
<circle cx="457.3595942764552" cy="343.60875024426855" r="3" class="point"/>
<circle cx="479.8667041533029" cy="327.3728148531788" r="3" class="point"/>
<circle cx="500.0" cy="312.94579149539425" r="3" class="point"/>
<circle cx="518.2127814696191" cy="299.9822247197194" r="3" class="point"/>
<circle cx="534.8397482609549" cy="288.22704932872057" r="3" class="point"/>
<circle cx="550.1350750150082" cy="277.4866124843223" r="3" class="point"/>
<circle cx="564.2963356984246" cy="267.610394050301" r="3" class="point"/>
<circle cx="577.4801539844998" cy="258.47899957006877" r="3" class="point"/>
<circle cx="589.8127923686069" cy="249.99621001735198" r="3" class="point"/>
<circle cx="601.3975254064405" cy="242.08333544356412" r="3" class="point"/>
<circle cx="612.3199022454546" cy="234.67519094107496" r="3" class="point"/>
<circle cx="622.6515844192447" cy="227.71716543643822" r="3" class="point"/>
<circle cx="632.4531980921518" cy="221.16306488945543" r="3" class="point"/>
<circle cx="641.7764896829245" cy="214.9734605555936" r="3" class="point"/>
<circle cx="650.6659795617708" cy="209.11440711971812" r="3" class="point"/>
<circle cx="659.1602478477408" cy="203.5565281635549" r="3" class="point"/>
<circle cx="667.2929463531066" cy="198.2741829556938" r="3" class="point"/>
<circle cx="675.0936038156965" cy="193.24484158702603" r="3" class="point"/>
<circle cx="682.5882731071599" cy="188.44868578087858" r="3" class="point"/>
<circle cx="689.8000562299544" cy="183.86808035412872" r="3" class="point"/>
<circle cx="696.7495337905765" cy="179.48737255537975" r="3" class="point"/>
<circle cx="703.4551190755407" cy="175.29249763621692" r="3" class="point"/>
<circle cx="709.9333520766514" cy="171.27087797913225" r="3" class="point"/>
<circle cx="716.19914528708" cy="167.411142810049" r="3" class="point"/>
<circle cx="722.2659904607586" cy="163.70301212522276" r="3" class="point"/>
<circle cx="728.1461335462706" cy="160.13715073779355" r="3" class="point"/>
<circle cx="733.8507234985923" cy="156.70506194607123" r="3" class="point"/>
<circle cx="739.3899395141214" cy="153.3989880680939" r="3" class="point"/>
<circle cx="744.7731003376064" cy="150.21183273129492" r="3" class="point"/>
<circle cx="750.0087585894778" cy="147.13709322521976" r="3" class="point"/>
<circle cx="755.1047825113965" cy="144.16874675155339" r="3" class="point"/>
<circle cx="760.0684270916596" cy="141.3012486985137" r="3" class="point"/>
<circle cx="764.9063961843035" cy="138.52957677601296" r="3" class="point"/>
<circle cx="769.6248969566836" cy="135.84888918910616" r="3" class="point"/>
<circle cx="774.2296877750762" cy="133.2548744531482" r="3" class="point"/>
<circle cx="778.7261204550181" cy="130.74340192849309" r="3" class="point"/>
<circle cx="783.1191776539225" cy="128.31073320846042" r="3" class="point"/>
<circle cx="787.4135060611512" cy="125.95331840292738" r="3" class="point"/>
<circle cx="791.6134459398926" cy="123.66778298997565" r="3" class="point"/>
<circle cx="795.7230574917157" cy="121.45111559769146" r="3" class="point"/>
<circle cx="799.7461444452583" cy="119.30033581370503" r="3" class="point"/>
<circle cx="803.6862752125461" cy="117.21283086205767" r="3" class="point"/>
<circle cx="807.5468019078482" cy="115.185947096252" r="3" class="point"/>
<circle cx="811.330877483092" cy="113.21731640070914" r="3" class="point"/>
<circle cx="815.0414711993117" cy="111.30469564899306" r="3" class="point"/>
<circle cx="818.6813826243472" cy="109.44591476901098" r="3" class="point"/>
<circle cx="822.2532543221062" cy="107.63899743859224" r="3" class="point"/>
<circle cx="825.7595833774673" cy="105.88202154820544" r="3" class="point"/>
<circle cx="829.2027318827281" cy="104.17319609105914" r="3" class="point"/>
<circle cx="832.5849364958963" cy="102.51081147508546" r="3" class="point"/>
<circle cx="835.9083171676924" cy="100.89327156676245" r="3" class="point"/>
<circle cx="839.1748851225435" cy="99.3190105667394" r="3" class="point"/>
<circle cx="842.3865501688032" cy="97.78656468258691" r="3" class="point"/>
<circle cx="845.5451274047375" cy="96.2945993613863" r="3" class="point"/>
<circle cx="848.6523433792318" cy="94.84175956621652" r="3" class="point"/>
<circle cx="851.709841759576" cy="93.42680969577373" r="3" class="point"/>
<circle cx="854.7191885529103" cy="92.04852357527568" r="3" class="point"/>
<circle cx="857.6818769228565" cy="90.70581610704244" r="3" class="point"/>
<circle cx="860.5993316384223" cy="89.3976029154984" r="3" class="point"/>
<circle cx="863.4729131883637" cy="88.12276967135335" r="3" class="point"/>
<circle cx="866.3039215907439" cy="86.88042444341136" r="3" class="point"/>
<circle cx="869.0935999243923" cy="85.66954327320582" r="3" class="point"/>
<circle cx="871.8431376062731" cy="84.4892827170911" r="3" class="point"/>
<circle cx="874.5536734363931" cy="83.33869931058314" r="3" class="point"/>
<circle cx="877.2262984297581" cy="82.21702047142912" r="3" class="point"/>
<circle cx="879.8620584530006" cy="81.12345948438372" r="3" class="point"/>
<circle cx="882.4619566816295" cy="80.05718858588068" r="3" class="point"/>
<circle cx="885.026955892348" cy="79.01753769101924" r="3" class="point"/>
<circle cx="887.5579806035482" cy="78.00376319454278" r="3" class="point"/>
<circle cx="890.055919075892" cy="77.01521624677753" r="3" class="point"/>
<circle cx="892.5216251838114" cy="76.05120246954903" r="3" class="point"/>
<circle cx="894.9559201677943" cy="75.11114385488042" r="3" class="point"/>
<circle cx="897.3595942764551" cy="74.1944407335044" r="3" class="point"/>
<circle cx="899.7334083066058" cy="73.30044735930073" r="3" class="point"/>
<circle cx="902.0780950488354" cy="72.42867879672713" r="3" class="point"/>
<circle cx="904.3943606454725" cy="71.5785492259065" r="3" class="point"/>
<circle cx="906.6828858672279" cy="70.74957721201827" r="3" class="point"/>
<circle cx="908.9443273142889" cy="69.94123182953183" r="3" class="point"/>
<circle cx="911.1793185471698" cy="69.1530572812685" r="3" class="point"/>
<circle cx="913.3884711521921" cy="68.38454810969642" r="3" class="point"/>
<circle cx="915.5723757460743" cy="67.635295029232" r="3" class="point"/>
<circle cx="917.7316029237617" cy="66.90483802049789" r="3" class="point"/>
<circle cx="919.8667041533029" cy="66.19276243052786" r="3" class="point"/>
<circle cx="921.9782126212812" cy="65.49867344547795" r="3" class="point"/>
<circle cx="924.0666440320442" cy="64.82217205294717" r="3" class="point"/>
<circle cx="926.1324973637315" cy="64.16287788195382" r="3" class="point"/>
<circle cx="928.1762555838675" cy="63.52040564389006" r="3" class="point"/>
<circle cx="930.198386327093" cy="62.89443234795783" r="3" class="point"/>
<circle cx="932.1993425374101" cy="62.28458351970005" r="3" class="point"/>
<circle cx="934.1795630771477" cy="61.69052325981613" r="3" class="point"/>
<circle cx="936.1394733046977" cy="61.11195251247716" r="3" class="point"/>
<circle cx="938.079485622922" cy="60.54854244906562" r="3" class="point"/>
<circle cx="940.0" cy="60.0" r="3" class="point"/>
<text x="500" y="25" text-anchor="middle" class="title">加速度谱 - 事件 1</text>
<text x="500" y="45" text-anchor="middle" class="label">M4.04 | 深度 6.5 km | 距离 42.7 km</text>
<text x="500" y="690" text-anchor="middle" class="label">频率 (Hz)</text>
<text x="20" y="350" text-anchor="middle" class="label" transform="rotate(-90 20 350)">加速度谱 (cm/s2)</text>
<rect x="780" y="65" width="210" height="100" fill="wheat" opacity="0.8" rx="5"/>
<text x="790" y="70" class="label">震级: M4.04</text>
<text x="790" y="92" class="label">发生时间: 73.8 年</text>
<text x="790" y="114" class="label">深度: 6.5 km</text>
<text x="790" y="136" class="label">距离: 42.7 km</text>
</svg>