<?xml version="1.0" encoding="UTF-8"?>
<svg width="1000" height="700" xmlns="http://www.w3.org/2000/svg">
<style>
text { font-family: Arial, sans-serif; }
.title { font-size: 16px; font-weight: bold; }
.label { font-size: 12px; }
.tick { font-size: 10px; }
.curve { stroke: #0066cc; stroke-width: 2.5; fill: none; }
.point { stroke: #0066cc; stroke-width: 1; fill: #0066cc; opacity: 0.7; }
</style>
<rect width="1000" height="700" fill="white"/>
<line x1="60" y1="640" x2="940" y2="640" stroke="black" stroke-width="2"/>
<line x1="60" y1="60" x2="60" y2="640" stroke="black" stroke-width="2"/>
<line x1="60.0" y1="640" x2="60.0" y2="645" stroke="black"/>
<text x="60.0" y="660" text-anchor="middle" class="tick">0.10</text>
<line x1="500.0" y1="640" x2="500.0" y2="645" stroke="black"/>
<text x="500.0" y="660" text-anchor="middle" class="tick">1.00</text>
<line x1="940.0" y1="640" x2="940.0" y2="645" stroke="black"/>
<text x="940.0" y="660" text-anchor="middle" class="tick">10.00</text>
<line x1="55" y1="669.5666719253398" x2="60" y2="669.5666719253398" stroke="black"/>
<text x="50" y="673.5666719253398" text-anchor="end" class="tick">1e+00</text>
<line x1="55" y1="635.4989675164172" x2="60" y2="635.4989675164172" stroke="black"/>
<text x="50" y="639.4989675164172" text-anchor="end" class="tick">1e+01</text>
<line x1="55" y1="601.4312631074947" x2="60" y2="601.4312631074947" stroke="black"/>
<text x="50" y="605.4312631074947" text-anchor="end" class="tick">1e+02</text>
<line x1="55" y1="567.3635586985721" x2="60" y2="567.3635586985721" stroke="black"/>
<text x="50" y="571.3635586985721" text-anchor="end" class="tick">1e+03</text>
<line x1="55" y1="533.2958542896495" x2="60" y2="533.2958542896495" stroke="black"/>
<text x="50" y="537.2958542896495" text-anchor="end" class="tick">1e+04</text>
<line x1="55" y1="499.22814988072696" x2="60" y2="499.22814988072696" stroke="black"/>
<text x="50" y="503.22814988072696" text-anchor="end" class="tick">1e+05</text>
<line x1="55" y1="465.16044547180434" x2="60" y2="465.16044547180434" stroke="black"/>
<line x1="55" y1="431.09274106288177" x2="60" y2="431.09274106288177" stroke="black"/>
<line x1="55" y1="397.0250366539592" x2="60" y2="397.0250366539592" stroke="black"/>
<line x1="55" y1="362.95733224503664" x2="60" y2="362.95733224503664" stroke="black"/>
<line x1="55" y1="328.8896278361141" x2="60" y2="328.8896278361141" stroke="black"/>
<line x1="55" y1="294.8219234271915" x2="60" y2="294.8219234271915" stroke="black"/>
<line x1="55" y1="260.7542190182689" x2="60" y2="260.7542190182689" stroke="black"/>
<line x1="55" y1="226.68651460934632" x2="60" y2="226.68651460934632" stroke="black"/>
<line x1="55" y1="192.61881020042375" x2="60" y2="192.61881020042375" stroke="black"/>
<line x1="55" y1="158.5511057915012" x2="60" y2="158.5511057915012" stroke="black"/>
<line x1="55" y1="124.48340138257868" x2="60" y2="124.48340138257868" stroke="black"/>
<line x1="55" y1="90.41569697365605" x2="60" y2="90.41569697365605" stroke="black"/>
<line x1="55" y1="56.347992564733545" x2="60" y2="56.347992564733545" stroke="black"/>
<path d="M766.8078006486662,605.9322955910774 L60.0,224.31057477832286 L192.45319809215175,203.9857027948218 L269.93335207665143,192.17357706746031 L324.90639618430345,183.84675175672078 L367.54680190784825,177.42966852538603 L402.3865501688032,172.22054756782245 L431.843137606273,167.84502682825257 L457.3595942764552,164.07964616188116 L479.8667041533029,160.78027255902413 L500.0,157.84849567719436 L518.2127814696191,155.21411404236665 L534.8397482609549,152.82529476908343 L550.1350750150082,150.64268483907534 L564.2963356984246,148.63569641418036 L577.4801539844998,146.78006683820365 L589.8127923686069,145.05624303288187 L601.3975254064405,143.4482340785101 L612.3199022454546,141.94279347229298 L622.6515844192447,140.52882346532908 L632.4531980921518,139.19693676990323 L641.7764896829245,137.93912090285556 L650.6659795617708,136.748477692076 L659.1602478477408,135.61903743045093 L667.2929463531066,134.54558955571002 L675.0936038156965,133.52355566903628 L682.5882731071599,132.54890841399254 L689.8000562299544,131.61806406988313 L696.7495337905765,130.72784177440911 L703.4551190755407,129.87538337012347 L709.9333520766514,129.05813290578635 L716.19914528708,128.27377967795314 L722.2659904607586,127.52023464326578 L728.1461335462706,126.7956007586306 L733.8507234985923,126.0981513730975 L739.3899395141214,125.42631001506402 L744.7731003376064,124.77863460042727 L750.0087585894778,124.15380368569151 L755.1047825113965,123.55059335235126 L760.0684270916596,122.96787685622405 L764.9063961843035,122.40463359634407 L769.6248969566836,121.85987965093227 L774.2296877750762,121.33273886482527 L778.7261204550181,120.82237183314226 L783.1191776539225,120.32801885833442 L787.4135060611512,119.84895855210607 L791.6134459398926,119.3845051634811 L795.7230574917157,118.93404673874318 L799.7461444452583,118.49697761559685 L803.6862752125461,118.07276684070803 L807.5468019078482,117.66087515526635 L811.330877483092,117.2608213244157 L815.0414711993117,116.87214951287649 L818.6813826243472,116.4944187310532 L822.2532543221062,116.12722736209764 L825.7595833774673,115.7701848059429 L829.2027318827281,115.42292710446839 L832.5849364958963,115.08510684418638 L835.9083171676924,114.75639966800372 L839.1748851225435,114.43648738316347 L842.3865501688032,114.12507252616945 L845.5451274047375,113.82188389683745 L848.6523433792318,113.52664613234163 L851.709841759576,113.23910814087685 L854.7191885529103,112.95902074624166 L857.6818769228565,112.68616344111354 L860.5993316384223,112.4203158649118 L863.4729131883637,112.16125157003387 L866.3039215907439,111.90878930334122 L869.0935999243923,111.66272098187176 L871.8431376062731,111.42287520584853 L874.5536734363931,111.18906024983437 L877.2262984297581,110.96111911409798 L879.8620584530006,110.73889192688262 L882.4619566816295,110.52221047482738 L885.026955892348,110.31093858712484 L887.5579806035482,110.10492515258261 L890.055919075892,109.90403831569415 L892.5216251838114,109.70813696891219 L894.9559201677943,109.51710365277336 L897.3595942764551,109.3308165059309 L899.7334083066058,109.14914430356464 L902.0780950488354,108.97198849985682 L904.3943606454725,108.79923004785451 L906.6828858672279,108.63077111313669 L908.9443273142889,108.46650380406436 L911.1793185471698,108.30633549615084 L913.3884711521921,108.15016347321773 L915.5723757460743,107.99790456259768 L917.7316029237617,107.8494652817933 L919.8667041533029,107.70476136740876 L921.9782126212812,107.56371258764057 L924.0666440320442,107.4262378574789 L926.1324973637315,107.29225988011603 L928.1762555838675,107.16170035941241 L930.198386327093,107.03449365903191 L932.1993425374101,106.91056368042462 L934.1795630771477,106.78984216406252 L936.1394733046977,106.67226833753682 L938.079485622922,106.55777537818301 L940.0,106.44630373008272 L776.0409769008024,601.4920490096673 L60.0,211.93198148520048 L192.45319809215175,191.60710137336048 L269.93335207665143,179.79497654239555 L324.90639618430345,171.46814789580066 L367.54680190784825,165.0510696270652 L402.3865501688032,159.84194860922935 L431.843137606273,155.46642886200402 L457.3595942764552,151.70104553598952 L479.8667041533029,148.40167093225045 L500.0,145.46988983961705 L518.2127814696191,142.83550692035493 L534.8397482609549,140.44669304087228 L550.1350750150082,138.26408926908556 L564.2963356984246,136.25709881852669 L577.4801539844998,134.4014654582121 L589.8127923686069,132.67764237814526 L601.3975254064405,131.06963300875088 L612.3199022454546,129.5641934080191 L622.6515844192447,128.1502235678069 L632.4531980921518,126.81833751787599 L641.7764896829245,125.56051990344201 L650.6659795617708,124.3698836859071 L659.1602478477408,123.24043535472879 L667.2929463531066,122.16699219688837 L675.0936038156965,121.14495732382545 L682.5882731071599,120.17031247278828 L689.8000562299544,119.2394616923657 L696.7495337905765,118.34924255156807 L703.4551190755407,117.49678499770346 L709.9333520766514,116.67953780545906 L716.19914528708,115.89518130414183 L722.2659904607586,115.14163136997331 L728.1461335462706,114.41700073172694 L733.8507234985923,113.71955312707712 L739.3899395141214,113.04770784481968 L744.7731003376064,112.40003438465988 L750.0087585894778,111.77520266573435 L755.1047825113965,111.17199169500736 L760.0684270916596,110.58927765540795 L764.9063961843035,110.0260291530999 L769.6248969566836,109.48128112696486 L774.2296877750762,108.95413937321234 L778.7261204550181,108.44377352828064 L783.1191776539225,107.94942057826836 L787.4135060611512,107.47035444716391 L791.6134459398926,107.00590624068298 L795.7230574917157,106.55544529116787 L799.7461444452583,106.11838033710717 L803.6862752125461,105.6941644181993 L807.5468019078482,105.2822745110144 L811.330877483092,104.88222178645367 L815.0414711993117,104.49354861859388 L818.6813826243472,104.1158221825284 L822.2532543221062,103.74862888365237 L825.7595833774673,103.39158726660037 L829.2027318827281,103.04433124435207 L832.5849364958963,102.70650912082499 L835.9083171676924,102.37779927500435 L839.1748851225435,102.05788476988823 L842.3865501688032,101.746472474661 L845.5451274047375,101.44328173788551 L848.6523433792318,101.14804354953344 L851.709841759576,100.8605057585172 L854.7191885529103,100.58042296643123 L857.6818769228565,100.30756483692494 L860.5993316384223,100.0417121421749 L863.4729131883637,99.78265599732379 L866.3039215907439,99.5301889396626 L869.0935999243923,99.2841238208996 L871.8431376062731,99.0442737338077 L874.5536734363931,98.81046254579223 L877.2262984297581,98.5825215920288 L879.8620584530006,98.36029172579151 L882.4619566816295,98.14361271164125 L885.026955892348,97.93234057074574 L887.5579806035482,97.72632708926164 L890.055919075892,97.52543688893661 L892.5216251838114,97.32953951518834 L894.9559201677943,97.13850680932262 L897.3595942764551,96.95221507787608 L899.7334083066058,96.77054709503341 L902.0780950488354,96.59338946736 L904.3943606454725,96.42063240572406 L906.6828858672279,96.25217170594715 L908.9443273142889,96.0879040841404 L911.1793185471698,95.92773355432519 L913.3884711521921,95.7715646483515 L915.5723757460743,95.61930447369559 L917.7316029237617,95.47086672391538 L919.8667041533029,95.32616308249885 L921.9782126212812,95.18511350555423 L924.0666440320442,95.04763771237015 L926.1324973637315,94.91365918046847 L928.1762555838675,94.78310097399924 L930.198386327093,94.65589164276764 L932.1993425374101,94.531963004045 L934.1795630771477,94.41124416390392 L936.1394733046977,94.29367120897848 L938.079485622922,94.17917735950596 L940.0,94.06770440892251" class="curve"/>
<circle cx="766.8078006486662" cy="605.9322955910774" r="3" class="point"/>
<circle cx="60.0" cy="224.31057477832286" r="3" class="point"/>
<circle cx="192.45319809215175" cy="203.9857027948218" r="3" class="point"/>
<circle cx="269.93335207665143" cy="192.17357706746031" r="3" class="point"/>
<circle cx="324.90639618430345" cy="183.84675175672078" r="3" class="point"/>
<circle cx="367.54680190784825" cy="177.42966852538603" r="3" class="point"/>
<circle cx="402.3865501688032" cy="172.22054756782245" r="3" class="point"/>
<circle cx="431.843137606273" cy="167.84502682825257" r="3" class="point"/>
<circle cx="457.3595942764552" cy="164.07964616188116" r="3" class="point"/>
<circle cx="479.8667041533029" cy="160.78027255902413" r="3" class="point"/>
<circle cx="500.0" cy="157.84849567719436" r="3" class="point"/>
<circle cx="518.2127814696191" cy="155.21411404236665" r="3" class="point"/>
<circle cx="534.8397482609549" cy="152.82529476908343" r="3" class="point"/>
<circle cx="550.1350750150082" cy="150.64268483907534" r="3" class="point"/>
<circle cx="564.2963356984246" cy="148.63569641418036" r="3" class="point"/>
<circle cx="577.4801539844998" cy="146.78006683820365" r="3" class="point"/>
<circle cx="589.8127923686069" cy="145.05624303288187" r="3" class="point"/>
<circle cx="601.3975254064405" cy="143.4482340785101" r="3" class="point"/>
<circle cx="612.3199022454546" cy="141.94279347229298" r="3" class="point"/>
<circle cx="622.6515844192447" cy="140.52882346532908" r="3" class="point"/>
<circle cx="632.4531980921518" cy="139.19693676990323" r="3" class="point"/>
<circle cx="641.7764896829245" cy="137.93912090285556" r="3" class="point"/>
<circle cx="650.6659795617708" cy="136.748477692076" r="3" class="point"/>
<circle cx="659.1602478477408" cy="135.61903743045093" r="3" class="point"/>
<circle cx="667.2929463531066" cy="134.54558955571002" r="3" class="point"/>
<circle cx="675.0936038156965" cy="133.52355566903628" r="3" class="point"/>
<circle cx="682.5882731071599" cy="132.54890841399254" r="3" class="point"/>
<circle cx="689.8000562299544" cy="131.61806406988313" r="3" class="point"/>
<circle cx="696.7495337905765" cy="130.72784177440911" r="3" class="point"/>
<circle cx="703.4551190755407" cy="129.87538337012347" r="3" class="point"/>
<circle cx="709.9333520766514" cy="129.05813290578635" r="3" class="point"/>
<circle cx="716.19914528708" cy="128.27377967795314" r="3" class="point"/>
<circle cx="722.2659904607586" cy="127.52023464326578" r="3" class="point"/>
<circle cx="728.1461335462706" cy="126.7956007586306" r="3" class="point"/>
<circle cx="733.8507234985923" cy="126.0981513730975" r="3" class="point"/>
<circle cx="739.3899395141214" cy="125.42631001506402" r="3" class="point"/>
<circle cx="744.7731003376064" cy="124.77863460042727" r="3" class="point"/>
<circle cx="750.0087585894778" cy="124.15380368569151" r="3" class="point"/>
<circle cx="755.1047825113965" cy="123.55059335235126" r="3" class="point"/>
<circle cx="760.0684270916596" cy="122.96787685622405" r="3" class="point"/>
<circle cx="764.9063961843035" cy="122.40463359634407" r="3" class="point"/>
<circle cx="769.6248969566836" cy="121.85987965093227" r="3" class="point"/>
<circle cx="774.2296877750762" cy="121.33273886482527" r="3" class="point"/>
<circle cx="778.7261204550181" cy="120.82237183314226" r="3" class="point"/>
<circle cx="783.1191776539225" cy="120.32801885833442" r="3" class="point"/>
<circle cx="787.4135060611512" cy="119.84895855210607" r="3" class="point"/>
<circle cx="791.6134459398926" cy="119.3845051634811" r="3" class="point"/>
<circle cx="795.7230574917157" cy="118.93404673874318" r="3" class="point"/>
<circle cx="799.7461444452583" cy="118.49697761559685" r="3" class="point"/>
<circle cx="803.6862752125461" cy="118.07276684070803" r="3" class="point"/>
<circle cx="807.5468019078482" cy="117.66087515526635" r="3" class="point"/>
<circle cx="811.330877483092" cy="117.2608213244157" r="3" class="point"/>
<circle cx="815.0414711993117" cy="116.87214951287649" r="3" class="point"/>
<circle cx="818.6813826243472" cy="116.4944187310532" r="3" class="point"/>
<circle cx="822.2532543221062" cy="116.12722736209764" r="3" class="point"/>
<circle cx="825.7595833774673" cy="115.7701848059429" r="3" class="point"/>
<circle cx="829.2027318827281" cy="115.42292710446839" r="3" class="point"/>
<circle cx="832.5849364958963" cy="115.08510684418638" r="3" class="point"/>
<circle cx="835.9083171676924" cy="114.75639966800372" r="3" class="point"/>
<circle cx="839.1748851225435" cy="114.43648738316347" r="3" class="point"/>
<circle cx="842.3865501688032" cy="114.12507252616945" r="3" class="point"/>
<circle cx="845.5451274047375" cy="113.82188389683745" r="3" class="point"/>
<circle cx="848.6523433792318" cy="113.52664613234163" r="3" class="point"/>
<circle cx="851.709841759576" cy="113.23910814087685" r="3" class="point"/>
<circle cx="854.7191885529103" cy="112.95902074624166" r="3" class="point"/>
<circle cx="857.6818769228565" cy="112.68616344111354" r="3" class="point"/>
<circle cx="860.5993316384223" cy="112.4203158649118" r="3" class="point"/>
<circle cx="863.4729131883637" cy="112.16125157003387" r="3" class="point"/>
<circle cx="866.3039215907439" cy="111.90878930334122" r="3" class="point"/>
<circle cx="869.0935999243923" cy="111.66272098187176" r="3" class="point"/>
<circle cx="871.8431376062731" cy="111.42287520584853" r="3" class="point"/>
<circle cx="874.5536734363931" cy="111.18906024983437" r="3" class="point"/>
<circle cx="877.2262984297581" cy="110.96111911409798" r="3" class="point"/>
<circle cx="879.8620584530006" cy="110.73889192688262" r="3" class="point"/>
<circle cx="882.4619566816295" cy="110.52221047482738" r="3" class="point"/>
<circle cx="885.026955892348" cy="110.31093858712484" r="3" class="point"/>
<circle cx="887.5579806035482" cy="110.10492515258261" r="3" class="point"/>
<circle cx="890.055919075892" cy="109.90403831569415" r="3" class="point"/>
<circle cx="892.5216251838114" cy="109.70813696891219" r="3" class="point"/>
<circle cx="894.9559201677943" cy="109.51710365277336" r="3" class="point"/>
<circle cx="897.3595942764551" cy="109.3308165059309" r="3" class="point"/>
<circle cx="899.7334083066058" cy="109.14914430356464" r="3" class="point"/>
<circle cx="902.0780950488354" cy="108.97198849985682" r="3" class="point"/>
<circle cx="904.3943606454725" cy="108.79923004785451" r="3" class="point"/>
<circle cx="906.6828858672279" cy="108.63077111313669" r="3" class="point"/>
<circle cx="908.9443273142889" cy="108.46650380406436" r="3" class="point"/>
<circle cx="911.1793185471698" cy="108.30633549615084" r="3" class="point"/>
<circle cx="913.3884711521921" cy="108.15016347321773" r="3" class="point"/>
<circle cx="915.5723757460743" cy="107.99790456259768" r="3" class="point"/>
<circle cx="917.7316029237617" cy="107.8494652817933" r="3" class="point"/>
<circle cx="919.8667041533029" cy="107.70476136740876" r="3" class="point"/>
<circle cx="921.9782126212812" cy="107.56371258764057" r="3" class="point"/>
<circle cx="924.0666440320442" cy="107.4262378574789" r="3" class="point"/>
<circle cx="926.1324973637315" cy="107.29225988011603" r="3" class="point"/>
<circle cx="928.1762555838675" cy="107.16170035941241" r="3" class="point"/>
<circle cx="930.198386327093" cy="107.03449365903191" r="3" class="point"/>
<circle cx="932.1993425374101" cy="106.91056368042462" r="3" class="point"/>
<circle cx="934.1795630771477" cy="106.78984216406252" r="3" class="point"/>
<circle cx="936.1394733046977" cy="106.67226833753682" r="3" class="point"/>
<circle cx="938.079485622922" cy="106.55777537818301" r="3" class="point"/>
<circle cx="940.0" cy="106.44630373008272" r="3" class="point"/>
<circle cx="776.0409769008024" cy="601.4920490096673" r="3" class="point"/>
<circle cx="60.0" cy="211.93198148520048" r="3" class="point"/>
<circle cx="192.45319809215175" cy="191.60710137336048" r="3" class="point"/>
<circle cx="269.93335207665143" cy="179.79497654239555" r="3" class="point"/>
<circle cx="324.90639618430345" cy="171.46814789580066" r="3" class="point"/>
<circle cx="367.54680190784825" cy="165.0510696270652" r="3" class="point"/>
<circle cx="402.3865501688032" cy="159.84194860922935" r="3" class="point"/>
<circle cx="431.843137606273" cy="155.46642886200402" r="3" class="point"/>
<circle cx="457.3595942764552" cy="151.70104553598952" r="3" class="point"/>
<circle cx="479.8667041533029" cy="148.40167093225045" r="3" class="point"/>
<circle cx="500.0" cy="145.46988983961705" r="3" class="point"/>
<circle cx="518.2127814696191" cy="142.83550692035493" r="3" class="point"/>
<circle cx="534.8397482609549" cy="140.44669304087228" r="3" class="point"/>
<circle cx="550.1350750150082" cy="138.26408926908556" r="3" class="point"/>
<circle cx="564.2963356984246" cy="136.25709881852669" r="3" class="point"/>
<circle cx="577.4801539844998" cy="134.4014654582121" r="3" class="point"/>
<circle cx="589.8127923686069" cy="132.67764237814526" r="3" class="point"/>
<circle cx="601.3975254064405" cy="131.06963300875088" r="3" class="point"/>
<circle cx="612.3199022454546" cy="129.5641934080191" r="3" class="point"/>
<circle cx="622.6515844192447" cy="128.1502235678069" r="3" class="point"/>
<circle cx="632.4531980921518" cy="126.81833751787599" r="3" class="point"/>
<circle cx="641.7764896829245" cy="125.56051990344201" r="3" class="point"/>
<circle cx="650.6659795617708" cy="124.3698836859071" r="3" class="point"/>
<circle cx="659.1602478477408" cy="123.24043535472879" r="3" class="point"/>
<circle cx="667.2929463531066" cy="122.16699219688837" r="3" class="point"/>
<circle cx="675.0936038156965" cy="121.14495732382545" r="3" class="point"/>
<circle cx="682.5882731071599" cy="120.17031247278828" r="3" class="point"/>
<circle cx="689.8000562299544" cy="119.2394616923657" r="3" class="point"/>
<circle cx="696.7495337905765" cy="118.34924255156807" r="3" class="point"/>
<circle cx="703.4551190755407" cy="117.49678499770346" r="3" class="point"/>
<circle cx="709.9333520766514" cy="116.67953780545906" r="3" class="point"/>
<circle cx="716.19914528708" cy="115.89518130414183" r="3" class="point"/>
<circle cx="722.2659904607586" cy="115.14163136997331" r="3" class="point"/>
<circle cx="728.1461335462706" cy="114.41700073172694" r="3" class="point"/>
<circle cx="733.8507234985923" cy="113.71955312707712" r="3" class="point"/>
<circle cx="739.3899395141214" cy="113.04770784481968" r="3" class="point"/>
<circle cx="744.7731003376064" cy="112.40003438465988" r="3" class="point"/>
<circle cx="750.0087585894778" cy="111.77520266573435" r="3" class="point"/>
<circle cx="755.1047825113965" cy="111.17199169500736" r="3" class="point"/>
<circle cx="760.0684270916596" cy="110.58927765540795" r="3" class="point"/>
<circle cx="764.9063961843035" cy="110.0260291530999" r="3" class="point"/>
<circle cx="769.6248969566836" cy="109.48128112696486" r="3" class="point"/>
<circle cx="774.2296877750762" cy="108.95413937321234" r="3" class="point"/>
<circle cx="778.7261204550181" cy="108.44377352828064" r="3" class="point"/>
<circle cx="783.1191776539225" cy="107.94942057826836" r="3" class="point"/>
<circle cx="787.4135060611512" cy="107.47035444716391" r="3" class="point"/>
<circle cx="791.6134459398926" cy="107.00590624068298" r="3" class="point"/>
<circle cx="795.7230574917157" cy="106.55544529116787" r="3" class="point"/>
<circle cx="799.7461444452583" cy="106.11838033710717" r="3" class="point"/>
<circle cx="803.6862752125461" cy="105.6941644181993" r="3" class="point"/>
<circle cx="807.5468019078482" cy="105.2822745110144" r="3" class="point"/>
<circle cx="811.330877483092" cy="104.88222178645367" r="3" class="point"/>
<circle cx="815.0414711993117" cy="104.49354861859388" r="3" class="point"/>
<circle cx="818.6813826243472" cy="104.1158221825284" r="3" class="point"/>
<circle cx="822.2532543221062" cy="103.74862888365237" r="3" class="point"/>
<circle cx="825.7595833774673" cy="103.39158726660037" r="3" class="point"/>
<circle cx="829.2027318827281" cy="103.04433124435207" r="3" class="point"/>
<circle cx="832.5849364958963" cy="102.70650912082499" r="3" class="point"/>
<circle cx="835.9083171676924" cy="102.37779927500435" r="3" class="point"/>
<circle cx="839.1748851225435" cy="102.05788476988823" r="3" class="point"/>
<circle cx="842.3865501688032" cy="101.746472474661" r="3" class="point"/>
<circle cx="845.5451274047375" cy="101.44328173788551" r="3" class="point"/>
<circle cx="848.6523433792318" cy="101.14804354953344" r="3" class="point"/>
<circle cx="851.709841759576" cy="100.8605057585172" r="3" class="point"/>
<circle cx="854.7191885529103" cy="100.58042296643123" r="3" class="point"/>
<circle cx="857.6818769228565" cy="100.30756483692494" r="3" class="point"/>
<circle cx="860.5993316384223" cy="100.0417121421749" r="3" class="point"/>
<circle cx="863.4729131883637" cy="99.78265599732379" r="3" class="point"/>
<circle cx="866.3039215907439" cy="99.5301889396626" r="3" class="point"/>
<circle cx="869.0935999243923" cy="99.2841238208996" r="3" class="point"/>
<circle cx="871.8431376062731" cy="99.0442737338077" r="3" class="point"/>
<circle cx="874.5536734363931" cy="98.81046254579223" r="3" class="point"/>
<circle cx="877.2262984297581" cy="98.5825215920288" r="3" class="point"/>
<circle cx="879.8620584530006" cy="98.36029172579151" r="3" class="point"/>
<circle cx="882.4619566816295" cy="98.14361271164125" r="3" class="point"/>
<circle cx="885.026955892348" cy="97.93234057074574" r="3" class="point"/>
<circle cx="887.5579806035482" cy="97.72632708926164" r="3" class="point"/>
<circle cx="890.055919075892" cy="97.52543688893661" r="3" class="point"/>
<circle cx="892.5216251838114" cy="97.32953951518834" r="3" class="point"/>
<circle cx="894.9559201677943" cy="97.13850680932262" r="3" class="point"/>
<circle cx="897.3595942764551" cy="96.95221507787608" r="3" class="point"/>
<circle cx="899.7334083066058" cy="96.77054709503341" r="3" class="point"/>
<circle cx="902.0780950488354" cy="96.59338946736" r="3" class="point"/>
<circle cx="904.3943606454725" cy="96.42063240572406" r="3" class="point"/>
<circle cx="906.6828858672279" cy="96.25217170594715" r="3" class="point"/>
<circle cx="908.9443273142889" cy="96.0879040841404" r="3" class="point"/>
<circle cx="911.1793185471698" cy="95.92773355432519" r="3" class="point"/>
<circle cx="913.3884711521921" cy="95.7715646483515" r="3" class="point"/>
<circle cx="915.5723757460743" cy="95.61930447369559" r="3" class="point"/>
<circle cx="917.7316029237617" cy="95.47086672391538" r="3" class="point"/>
<circle cx="919.8667041533029" cy="95.32616308249885" r="3" class="point"/>
<circle cx="921.9782126212812" cy="95.18511350555423" r="3" class="point"/>
<circle cx="924.0666440320442" cy="95.04763771237015" r="3" class="point"/>
<circle cx="926.1324973637315" cy="94.91365918046847" r="3" class="point"/>
<circle cx="928.1762555838675" cy="94.78310097399924" r="3" class="point"/>
<circle cx="930.198386327093" cy="94.65589164276764" r="3" class="point"/>
<circle cx="932.1993425374101" cy="94.531963004045" r="3" class="point"/>
<circle cx="934.1795630771477" cy="94.41124416390392" r="3" class="point"/>
<circle cx="936.1394733046977" cy="94.29367120897848" r="3" class="point"/>
<circle cx="938.079485622922" cy="94.17917735950596" r="3" class="point"/>
<circle cx="940.0" cy="94.06770440892251" r="3" class="point"/>
<text x="500" y="25" text-anchor="middle" class="title">地震加速度反应谱</text>
<text x="500" y="690" text-anchor="middle" class="label">频率 (Hz)</text>
<text x="20" y="350" text-anchor="middle" class="label" transform="rotate(-90 20 350)">加速度谱 (cm/s²)</text>
</svg>