<?xml version="1.0" encoding="UTF-8"?>
<svg width="1000" height="700" xmlns="http://www.w3.org/2000/svg">
<style>
text { font-family: Arial, sans-serif; }
.title { font-size: 16px; font-weight: bold; }
.label { font-size: 12px; }
.tick { font-size: 10px; }
.curve { stroke: #2ca02c; stroke-width: 2.5; fill: none; }
.point { stroke: #2ca02c; stroke-width: 1; fill: #2ca02c; opacity: 0.7; }
</style>
<rect width="1000" height="700" fill="white"/>
<line x1="60" y1="640" x2="940" y2="640" stroke="black" stroke-width="2"/>
<line x1="60" y1="60" x2="60" y2="640" stroke="black" stroke-width="2"/>
<line x1="60.0" y1="640" x2="60.0" y2="645" stroke="black"/>
<text x="60.0" y="660" text-anchor="middle" class="tick">0.01</text>
<line x1="353.3333333333333" y1="640" x2="353.3333333333333" y2="645" stroke="black"/>
<text x="353.3333333333333" y="660" text-anchor="middle" class="tick">0.10</text>
<line x1="646.6666666666666" y1="640" x2="646.6666666666666" y2="645" stroke="black"/>
<text x="646.6666666666666" y="660" text-anchor="middle" class="tick">1.00</text>
<line x1="940.0" y1="640" x2="940.0" y2="645" stroke="black"/>
<text x="940.0" y="660" text-anchor="middle" class="tick">10.00</text>
<line x1="55" y1="677.2311100886722" x2="60" y2="677.2311100886722" stroke="black"/>
<text x="50" y="681.2311100886722" text-anchor="end" class="tick">1e-05</text>
<line x1="55" y1="593.7949704241476" x2="60" y2="593.7949704241476" stroke="black"/>
<text x="50" y="597.7949704241476" text-anchor="end" class="tick">1e-04</text>
<line x1="55" y1="510.3588307596229" x2="60" y2="510.3588307596229" stroke="black"/>
<text x="50" y="514.3588307596228" text-anchor="end" class="tick">1e-03</text>
<line x1="55" y1="426.92269109509823" x2="60" y2="426.92269109509823" stroke="black"/>
<text x="50" y="430.92269109509823" text-anchor="end" class="tick">1e-02</text>
<line x1="55" y1="343.48655143057357" x2="60" y2="343.48655143057357" stroke="black"/>
<text x="50" y="347.48655143057357" text-anchor="end" class="tick">1e-01</text>
<line x1="55" y1="260.05041176604897" x2="60" y2="260.05041176604897" stroke="black"/>
<text x="50" y="264.05041176604897" text-anchor="end" class="tick">1e+00</text>
<line x1="55" y1="176.6142721015243" x2="60" y2="176.6142721015243" stroke="black"/>
<text x="50" y="180.6142721015243" text-anchor="end" class="tick">1e+01</text>
<line x1="55" y1="93.1781324369997" x2="60" y2="93.1781324369997" stroke="black"/>
<text x="50" y="97.1781324369997" text-anchor="end" class="tick">1e+02</text>
<line x1="55" y1="9.741992772474987" x2="60" y2="9.741992772474987" stroke="black"/>
<text x="50" y="13.741992772474987" text-anchor="end" class="tick">1e+03</text>
<path d="M60.0,556.5638603354753 L111.65343598966646,418.976394545261 L148.30213206143452,354.88678066475063 L176.7290692104644,321.74610832781633 L199.95556805110095,297.4091853366226 L236.604264122869,260.52128093381714 L265.0312012718988,233.21409351262287 L288.2577001125355,220.26750038096958 L307.8954250708487,208.7524642637798 L324.90639618430345,202.33346778748944 L339.9111361022019,195.113237947186 L353.3333333333333,195.2090518419878 L376.5598321739699,192.85106509286408 L404.98676932299986,177.68346411237656 L441.63546539476783,178.97600161737353 L470.06240254379765,183.96501233816593 L493.28890138443427,171.87067410963698 L529.9375974562023,169.03339353440737 L558.3645346052322,172.59517004407087 L581.5910334458688,168.04550943256982 L601.228758404182,166.1964255077616 L618.2397295176368,165.40407675795313 L633.2444694355353,168.8906075874978 L646.6666666666666,169.70988535586355 L675.0936038156965,167.8481877427423 L698.3201026563332,169.1754163360818 L717.9578276146464,152.02045242503397 L734.9687987281012,156.77799817473726 L763.395735877131,160.5602372185155 L786.6222347177677,155.8284318001676 L823.2709307895357,150.99737076341063 L851.6978679385655,146.67989911002343 L903.351303928232,143.4361396645246 L940.0,147.28590084522256" class="curve"/>
<circle cx="60.0" cy="556.5638603354753" r="3" class="point"/>
<circle cx="111.65343598966646" cy="418.976394545261" r="3" class="point"/>
<circle cx="148.30213206143452" cy="354.88678066475063" r="3" class="point"/>
<circle cx="176.7290692104644" cy="321.74610832781633" r="3" class="point"/>
<circle cx="199.95556805110095" cy="297.4091853366226" r="3" class="point"/>
<circle cx="236.604264122869" cy="260.52128093381714" r="3" class="point"/>
<circle cx="265.0312012718988" cy="233.21409351262287" r="3" class="point"/>
<circle cx="288.2577001125355" cy="220.26750038096958" r="3" class="point"/>
<circle cx="307.8954250708487" cy="208.7524642637798" r="3" class="point"/>
<circle cx="324.90639618430345" cy="202.33346778748944" r="3" class="point"/>
<circle cx="339.9111361022019" cy="195.113237947186" r="3" class="point"/>
<circle cx="353.3333333333333" cy="195.2090518419878" r="3" class="point"/>
<circle cx="376.5598321739699" cy="192.85106509286408" r="3" class="point"/>
<circle cx="404.98676932299986" cy="177.68346411237656" r="3" class="point"/>
<circle cx="441.63546539476783" cy="178.97600161737353" r="3" class="point"/>
<circle cx="470.06240254379765" cy="183.96501233816593" r="3" class="point"/>
<circle cx="493.28890138443427" cy="171.87067410963698" r="3" class="point"/>
<circle cx="529.9375974562023" cy="169.03339353440737" r="3" class="point"/>
<circle cx="558.3645346052322" cy="172.59517004407087" r="3" class="point"/>
<circle cx="581.5910334458688" cy="168.04550943256982" r="3" class="point"/>
<circle cx="601.228758404182" cy="166.1964255077616" r="3" class="point"/>
<circle cx="618.2397295176368" cy="165.40407675795313" r="3" class="point"/>
<circle cx="633.2444694355353" cy="168.8906075874978" r="3" class="point"/>
<circle cx="646.6666666666666" cy="169.70988535586355" r="3" class="point"/>
<circle cx="675.0936038156965" cy="167.8481877427423" r="3" class="point"/>
<circle cx="698.3201026563332" cy="169.1754163360818" r="3" class="point"/>
<circle cx="717.9578276146464" cy="152.02045242503397" r="3" class="point"/>
<circle cx="734.9687987281012" cy="156.77799817473726" r="3" class="point"/>
<circle cx="763.395735877131" cy="160.5602372185155" r="3" class="point"/>
<circle cx="786.6222347177677" cy="155.8284318001676" r="3" class="point"/>
<circle cx="823.2709307895357" cy="150.99737076341063" r="3" class="point"/>
<circle cx="851.6978679385655" cy="146.67989911002343" r="3" class="point"/>
<circle cx="903.351303928232" cy="143.4361396645246" r="3" class="point"/>
<circle cx="940.0" cy="147.28590084522256" r="3" class="point"/>
<text x="500" y="25" text-anchor="middle" class="title">条件均值谱 (控制周期T=1.0s)</text>
<text x="500" y="690" text-anchor="middle" class="label">周期 (s)</text>
<text x="20" y="350" text-anchor="middle" class="label" transform="rotate(-90 20 350)">谱加速度 (cm/s²)</text>
</svg>