<?xml version="1.0" encoding="UTF-8"?>
<svg width="1000" height="700" xmlns="http://www.w3.org/2000/svg">
<style>
text { font-family: Arial, sans-serif; }
.title { font-size: 16px; font-weight: bold; }
.label { font-size: 12px; }
.tick { font-size: 10px; }
.curve { stroke: #2ca02c; stroke-width: 2.5; fill: none; }
.point { stroke: #2ca02c; stroke-width: 1; fill: #2ca02c; opacity: 0.7; }
</style>
<rect width="1000" height="700" fill="white"/>
<line x1="60" y1="640" x2="940" y2="640" stroke="black" stroke-width="2"/>
<line x1="60" y1="60" x2="60" y2="640" stroke="black" stroke-width="2"/>
<line x1="60.0" y1="640" x2="60.0" y2="645" stroke="black"/>
<text x="60.0" y="660" text-anchor="middle" class="tick">0.01</text>
<line x1="353.3333333333333" y1="640" x2="353.3333333333333" y2="645" stroke="black"/>
<text x="353.3333333333333" y="660" text-anchor="middle" class="tick">0.10</text>
<line x1="646.6666666666666" y1="640" x2="646.6666666666666" y2="645" stroke="black"/>
<text x="646.6666666666666" y="660" text-anchor="middle" class="tick">1.00</text>
<line x1="940.0" y1="640" x2="940.0" y2="645" stroke="black"/>
<text x="940.0" y="660" text-anchor="middle" class="tick">10.00</text>
<line x1="55" y1="642.9047457281628" x2="60" y2="642.9047457281628" stroke="black"/>
<text x="50" y="646.9047457281628" text-anchor="end" class="tick">1e+04</text>
<line x1="55" y1="595.8354767587247" x2="60" y2="595.8354767587247" stroke="black"/>
<text x="50" y="599.8354767587247" text-anchor="end" class="tick">1e+05</text>
<line x1="55" y1="548.7662077892865" x2="60" y2="548.7662077892865" stroke="black"/>
<line x1="55" y1="501.69693881984836" x2="60" y2="501.69693881984836" stroke="black"/>
<line x1="55" y1="454.62766985041026" x2="60" y2="454.62766985041026" stroke="black"/>
<line x1="55" y1="407.5584008809721" x2="60" y2="407.5584008809721" stroke="black"/>
<line x1="55" y1="360.489131911534" x2="60" y2="360.489131911534" stroke="black"/>
<line x1="55" y1="313.41986294209585" x2="60" y2="313.41986294209585" stroke="black"/>
<line x1="55" y1="266.3505939726577" x2="60" y2="266.3505939726577" stroke="black"/>
<line x1="55" y1="219.28132500321965" x2="60" y2="219.28132500321965" stroke="black"/>
<line x1="55" y1="172.2120560337815" x2="60" y2="172.2120560337815" stroke="black"/>
<line x1="55" y1="125.14278706434334" x2="60" y2="125.14278706434334" stroke="black"/>
<line x1="55" y1="78.07351809490524" x2="60" y2="78.07351809490524" stroke="black"/>
<line x1="55" y1="31.004249125467027" x2="60" y2="31.004249125467027" stroke="black"/>
<path d="M60.0,578.7614603297276 L148.30213206143452,578.7614603297276 L265.0312012718988,578.7614603297276 L353.3333333333333,578.7614603297276 L441.63546539476783,556.3037146159775 L558.3645346052322,369.12269648613676 L646.6666666666666,107.0692689694381 L734.9687987281012,405.7497069893491 L851.6978679385655,592.9307310305619 L940.0,592.9307310305619" class="curve"/>
<circle cx="60.0" cy="578.7614603297276" r="3" class="point"/>
<circle cx="148.30213206143452" cy="578.7614603297276" r="3" class="point"/>
<circle cx="265.0312012718988" cy="578.7614603297276" r="3" class="point"/>
<circle cx="353.3333333333333" cy="578.7614603297276" r="3" class="point"/>
<circle cx="441.63546539476783" cy="556.3037146159775" r="3" class="point"/>
<circle cx="558.3645346052322" cy="369.12269648613676" r="3" class="point"/>
<circle cx="646.6666666666666" cy="107.0692689694381" r="3" class="point"/>
<circle cx="734.9687987281012" cy="405.7497069893491" r="3" class="point"/>
<circle cx="851.6978679385655" cy="592.9307310305619" r="3" class="point"/>
<circle cx="940.0" cy="592.9307310305619" r="3" class="point"/>
<text x="500" y="25" text-anchor="middle" class="title">条件均值谱 (控制周期T=1.0s)</text>
<text x="500" y="690" text-anchor="middle" class="label">周期 (s)</text>
<text x="20" y="350" text-anchor="middle" class="label" transform="rotate(-90 20 350)">谱加速度 (cm/s²)</text>
</svg>